<svg width="41" height="41" viewBox="0 0 41 41" fill="none" xmlns="http://www.w3.org/2000/svg">
<g clip-path="url(#clip0_96_1836)">
<path d="M15.0552 7.01836L14.6343 7.48037C14.7912 7.62333 15.01 7.67687 15.2152 7.62253C15.4203 7.5682 15.584 7.41342 15.6496 7.21153L15.0552 7.01836ZM2.09151 15.2077C1.70683 13.729 1.95194 11.6814 2.88519 9.83431C3.81191 8.0002 5.38071 6.43472 7.56909 5.83073L7.23653 4.62578C4.63852 5.34282 2.81927 7.19296 1.76952 9.27061C0.726293 11.3353 0.406522 13.6956 0.881769 15.5225L2.09151 15.2077ZM7.56909 5.83073C10.527 5.01438 12.9753 5.96898 14.6343 7.48037L15.4761 6.55635C13.5472 4.79903 10.6663 3.6792 7.23653 4.62578L7.56909 5.83073ZM15.6496 7.21153C16.3557 5.03885 18.0197 2.94646 20.9775 2.13011L20.645 0.925161C17.2195 1.87056 15.2752 4.3193 14.4608 6.82518L15.6496 7.21153ZM20.9775 2.13011C23.1676 1.52566 25.2805 2.07333 26.9663 3.18008C28.6652 4.29536 29.8683 5.93843 30.2528 7.41628L31.4626 7.10158C30.9871 5.2738 29.5635 3.38982 27.6523 2.13515C25.7282 0.871954 23.2478 0.206805 20.645 0.925161L20.9775 2.13011ZM30.2528 7.41628C31.3527 11.6441 30.1255 15.2826 28.1527 18.4226L29.2112 19.0876C31.2938 15.7726 32.6786 11.7763 31.4626 7.10158L30.2528 7.41628ZM15.856 26.2245C10.6087 24.5583 3.93091 22.2786 2.09151 15.2077L0.881769 15.5225C2.91704 23.3462 10.3339 25.7826 15.4777 27.4158L15.856 26.2245Z" fill="#FFFAF5"/>
<path d="M23.478 37.2274L24.0275 36.9295L24.0245 36.9242L23.478 37.2274ZM28.6273 19.6425L28.0321 19.8329C28.0966 20.0347 28.2591 20.1901 28.4636 20.2457C28.6681 20.3012 28.8868 20.2494 29.0447 20.1079L28.6273 19.6425ZM24.0062 37.3641L23.6845 36.8282L23.6832 36.829L24.0062 37.3641ZM24.0245 36.9242C23.5213 36.0169 22.5828 34.9901 21.5813 33.8976C20.556 32.7789 19.4153 31.5424 18.4043 30.1546C16.3866 27.3849 14.9535 24.1074 16.042 20.1757L14.8373 19.8422C13.6031 24.3001 15.2711 27.9764 17.394 30.8906C18.4535 32.3449 19.6431 33.633 20.66 34.7422C21.7007 35.8776 22.5165 36.7822 22.9313 37.5305L24.0245 36.9242ZM16.042 20.1757C16.3698 18.9914 17.374 17.6499 18.7907 16.7265C20.1953 15.8111 21.9385 15.3497 23.7236 15.812L24.037 14.6019C21.8422 14.0336 19.741 14.6151 18.1082 15.6792C16.4877 16.7354 15.2615 18.3101 14.8373 19.8422L16.042 20.1757ZM23.7236 15.812C26.1431 16.4385 27.478 18.0999 28.0321 19.8329L29.2227 19.4522C28.557 17.3697 26.9287 15.3507 24.037 14.6019L23.7236 15.812ZM29.0447 20.1079C30.4282 18.867 32.4525 18.0722 34.8726 18.699L35.186 17.4889C32.2983 16.7412 29.8543 17.7026 28.2101 19.1772L29.0447 20.1079ZM34.8726 18.699C36.6586 19.1615 37.9246 20.4001 38.664 21.8635C39.4105 23.3411 39.5867 24.9829 39.2591 26.1661L40.4637 26.4996C40.8882 24.9665 40.641 23.0047 39.7797 21.2999C38.9113 19.581 37.3851 18.0584 35.186 17.4889L34.8726 18.699ZM39.2591 26.1661C38.1697 30.101 35.2292 32.2532 32.0447 33.6806C30.4505 34.3952 28.8223 34.9159 27.3568 35.3895C25.9238 35.8526 24.5848 36.2876 23.6845 36.8282L24.328 37.9C25.0772 37.45 26.2548 37.0592 27.7412 36.5789C29.195 36.1091 30.8891 35.5685 32.556 34.8212C35.8936 33.3252 39.231 30.9525 40.4637 26.4996L39.2591 26.1661ZM23.6832 36.829C23.6388 36.8557 23.6072 36.8749 23.5807 36.8901C23.568 36.8975 23.5586 36.9027 23.5517 36.9064C23.5446 36.9101 23.5418 36.9115 23.5423 36.9112C23.5428 36.911 23.549 36.9081 23.5598 36.9042C23.5706 36.9005 23.589 36.8945 23.6136 36.8895C23.6653 36.8791 23.746 36.8725 23.8402 36.8969C23.9351 36.9214 24.0041 36.9672 24.0467 37.0042C24.0668 37.0219 24.081 37.0371 24.0892 37.0469C24.0976 37.0565 24.1021 37.0631 24.103 37.0642C24.1036 37.0651 24.0981 37.0571 24.0832 37.031C24.0686 37.0054 24.0516 36.9741 24.0275 36.9295L22.9285 37.5251C22.9675 37.5971 23.0218 37.6995 23.0787 37.7809C23.1321 37.857 23.2701 38.0405 23.5268 38.107C23.7792 38.1722 23.9873 38.0827 24.0685 38.0451C24.1578 38.0036 24.2565 37.943 24.3291 37.8992L23.6832 36.829Z" fill="#FFFAF5"/>
<path d="M4.41858 12.4577C4.39241 12.8019 4.65021 13.1021 4.9944 13.1282C5.33859 13.1544 5.63881 12.8966 5.66498 12.5524L4.41858 12.4577ZM7.76123 9.34025C8.08443 9.21905 8.24818 8.8588 8.12698 8.5356C8.00578 8.2124 7.64553 8.04865 7.32233 8.16985L7.76123 9.34025ZM5.66498 12.5524C5.72043 11.823 5.99154 11.106 6.38851 10.5211C6.78893 9.93103 7.28736 9.51796 7.76123 9.34025L7.32233 8.16985C6.54619 8.46088 5.85906 9.0752 5.35419 9.81916C4.84589 10.5682 4.49199 11.4919 4.41858 12.4577L5.66498 12.5524Z" fill="#FFFAF5"/>
<path fill-rule="evenodd" clip-rule="evenodd" d="M23.6667 36.9082L20.1667 32.9082L17.1667 29.4082L15.6667 24.9082V19.9082L17.1667 17.4082L20.1667 15.9082L21.6667 15.4082H24.6667L26.6667 16.4082L27.6667 17.9082L28.1667 19.4082L29.1667 18.9082L31.6667 17.9082H34.1667L36.1667 18.4082L38.1667 19.9082L39.1667 21.9082L40.1667 23.9082L39.6667 25.9082L39.1667 27.9082L37.6667 30.4082L35.6667 32.4082L32.6667 33.9082L29.6667 35.4082L26.1667 36.4082L24.1667 37.4082L23.6667 36.9082ZM18.7917 21.8796C18.4466 21.8796 18.1667 21.5998 18.1667 21.2546C18.1667 20.4264 18.5746 19.6504 19.1311 19.0939C19.6875 18.5375 20.4635 18.1296 21.2917 18.1296C21.6369 18.1296 21.9167 18.4095 21.9167 18.7546C21.9167 19.0998 21.6369 19.3796 21.2917 19.3796C20.87 19.3796 20.396 19.5968 20.015 19.9779C19.6339 20.3589 19.4167 20.8329 19.4167 21.2546C19.4167 21.5998 19.1369 21.8796 18.7917 21.8796Z" fill="#FFFAF5"/>
</g>
<defs>
<clipPath id="clip0_96_1836">
<rect width="40" height="40" fill="white" transform="translate(0.666748 0.629883)"/>
</clipPath>
</defs>
</svg>
