<svg width="40" height="41" viewBox="0 0 40 41" fill="none" xmlns="http://www.w3.org/2000/svg">
<g clip-path="url(#clip0_96_1815)">
<path d="M38.4163 9.45578L20.2547 0.688125C20.0937 0.610469 19.9062 0.610469 19.7453 0.688125L1.58361 9.45578C1.38111 9.55352 1.25244 9.75859 1.25244 9.98344V31.2763C1.25244 31.5012 1.38111 31.7062 1.58361 31.804L19.7452 40.5716C19.8256 40.6105 19.9128 40.6299 19.9999 40.6299C20.087 40.6299 20.1742 40.6105 20.2547 40.5716L38.4163 31.804C38.6188 31.7062 38.7474 31.5012 38.7474 31.2763V9.98352C38.7474 9.75852 38.6187 9.55359 38.4163 9.45578ZM19.9999 1.86648L36.8138 9.98344L31.9398 12.3364C31.9089 12.3129 31.8763 12.2912 31.8406 12.2739L15.141 4.21219L19.9999 1.86648ZM37.5756 30.9087L20.5859 39.1104V19.1188L24.6385 17.1624C24.9299 17.0217 25.052 16.6715 24.9113 16.38C24.7706 16.0887 24.4204 15.9663 24.1289 16.1071L19.9999 18.1005L18.3753 17.3161C18.0838 17.1752 17.7335 17.2976 17.5928 17.589C17.4521 17.8804 17.5743 18.2307 17.8657 18.3714L19.414 19.1188V39.1104L2.42432 30.9085V10.917L15.3618 17.1627C15.4439 17.2023 15.5307 17.2211 15.6161 17.2211C15.8339 17.2211 16.0431 17.0991 16.1442 16.8898C16.2849 16.5984 16.1627 16.248 15.8713 16.1073L3.18611 9.98344L9.00682 7.17344L26.6079 15.6705C26.6105 15.6741 26.6134 15.6773 26.616 15.6809V22.712C26.616 22.9137 26.7197 23.1011 26.8905 23.2084C26.9853 23.2679 27.0935 23.298 27.2021 23.298C27.2889 23.298 27.376 23.2787 27.4567 23.2397L31.8406 21.1234C32.0431 21.0256 32.1717 20.8206 32.1717 20.5957V13.5258L37.5756 10.917V30.9087Z" fill="#FFFAF5"/>
<path d="M7.25974 28.6361L4.5945 27.3495C4.30294 27.2086 3.95278 27.331 3.81208 27.6224C3.67138 27.9138 3.79356 28.2641 4.08497 28.4048L6.7502 29.6915C6.83231 29.7311 6.91911 29.7499 7.0045 29.7499C7.22231 29.7499 7.43153 29.6279 7.53255 29.4186C7.67333 29.1271 7.55114 28.7769 7.25974 28.6361Z" fill="#FFFAF5"/>
<path d="M9.71281 27.0392L4.59836 24.5701C4.30687 24.4294 3.95664 24.5516 3.81594 24.8431C3.67531 25.1345 3.7975 25.4848 4.08891 25.6255L9.20336 28.0946C9.28547 28.1342 9.37226 28.153 9.45766 28.153C9.67547 28.153 9.88469 28.031 9.9857 27.8217C10.1264 27.5301 10.0042 27.1798 9.71281 27.0392Z" fill="#FFFAF5"/>
</g>
<defs>
<clipPath id="clip0_96_1815">
<rect width="40" height="40" fill="white" transform="translate(0 0.629883)"/>
</clipPath>
</defs>
</svg>
