<svg width="41" height="41" viewBox="0 0 41 41" fill="none" xmlns="http://www.w3.org/2000/svg">
<path fill-rule="evenodd" clip-rule="evenodd" d="M35.0165 20.0134C34.6765 20.0708 34.447 20.3931 34.5044 20.7336C34.6399 21.5344 34.7083 22.3401 34.7083 23.1299C34.7083 27.5352 32.7448 31.5115 29.5811 34.1592C29.0286 30.5717 26.4816 27.6945 23.0994 26.6648C24.4441 25.7678 25.3333 24.2395 25.3333 22.5049C25.3333 19.7473 23.0902 17.5049 20.3333 17.5049C17.5763 17.5049 15.3333 19.7473 15.3333 22.5049C15.3333 24.2395 16.2224 25.7678 17.5671 26.6648C14.1849 27.6945 11.6379 30.5717 11.0854 34.1592C7.92175 31.5115 5.95825 27.5352 5.95825 23.1299C5.95825 22.3401 6.02661 21.5344 6.16211 20.7336C6.21948 20.3931 5.98999 20.0708 5.65002 20.0134C5.30212 19.9548 4.98718 20.1855 4.9292 20.5261C4.78271 21.394 4.70825 22.2705 4.70825 23.1299C4.70825 30.8057 10.1904 37.2839 17.7435 38.5339C17.7777 38.54 17.8125 38.5425 17.8461 38.5425C18.1464 38.5425 18.4113 38.3252 18.4619 38.02C18.5187 37.6794 18.288 37.3572 17.9474 37.301C15.8413 36.9524 13.9146 36.1562 12.246 35.0266C12.5475 30.7851 16.0334 27.5049 20.3333 27.5049C24.6331 27.5049 28.119 30.7851 28.4205 35.0266C26.7519 36.1562 24.8252 36.9524 22.7191 37.301C22.3785 37.3572 22.1478 37.6794 22.2046 38.02C22.2552 38.3252 22.5201 38.5425 22.8204 38.5425C22.854 38.5425 22.8888 38.54 22.923 38.5339C30.4761 37.2839 35.9583 30.8057 35.9583 23.1299C35.9583 22.2705 35.8838 21.394 35.7373 20.5261C35.6793 20.1855 35.3607 19.9536 35.0165 20.0134ZM16.5833 22.5049C16.5833 20.437 18.2654 18.7549 20.3333 18.7549C22.4011 18.7549 24.0833 20.437 24.0833 22.5049C24.0833 24.5728 22.4011 26.2549 20.3333 26.2549C18.2654 26.2549 16.5833 24.5728 16.5833 22.5049Z" fill="#FFFAF5"/>
<path fill-rule="evenodd" clip-rule="evenodd" d="M27.1777 7.47803C27.1039 7.25098 26.9085 7.08618 26.6729 7.052L22.6794 6.47217L20.8935 2.85278C20.6836 2.42798 19.9829 2.42798 19.7729 2.85278L17.987 6.47217L13.9935 7.052C13.7579 7.08618 13.5626 7.25098 13.4887 7.47803C13.4155 7.70386 13.4765 7.95288 13.6468 8.1189L16.5368 10.9351L15.8545 14.9121C15.8142 15.1477 15.9106 15.3845 16.1029 15.5237C16.2964 15.6641 16.5509 15.6848 16.7614 15.5713L20.3332 13.6926L23.905 15.5713C23.9966 15.6201 24.0967 15.6433 24.1961 15.6433C24.3255 15.6433 24.4543 15.603 24.5636 15.5237C24.7558 15.3845 24.8523 15.1477 24.812 14.9121L24.1296 10.9351L27.0196 8.1189C27.1899 7.95288 27.251 7.70386 27.1777 7.47803Z" fill="#FFFAF5"/>
<path fill-rule="evenodd" clip-rule="evenodd" d="M5.37717 17.5342C5.33689 17.7698 5.43332 18.0066 5.62558 18.1458C5.81968 18.2861 6.0748 18.3057 6.28415 18.1934L9.08323 16.7212L11.8823 18.1934C11.9739 18.2422 12.0739 18.2654 12.1734 18.2654C12.3028 18.2654 12.4316 18.2251 12.5409 18.1458C12.7331 18.0066 12.8296 17.7698 12.7893 17.5342L12.2546 14.4177L14.5196 12.2107C14.6899 12.0447 14.7509 11.7957 14.6777 11.5698C14.6039 11.3428 14.4085 11.178 14.1729 11.1438L11.0431 10.6897L9.64353 7.85278C9.43357 7.42798 8.73288 7.42798 8.52292 7.85278L7.12339 10.6897L3.9935 11.1438C3.75791 11.178 3.5626 11.3428 3.48874 11.5698C3.4155 11.7957 3.47654 12.0447 3.64682 12.2107L5.91184 14.4177L5.37717 17.5342Z" fill="#FFFAF5"/>
<path fill-rule="evenodd" clip-rule="evenodd" d="M36.6729 11.1438L33.5431 10.6897L32.1435 7.85278C31.9336 7.42798 31.2329 7.42798 31.0229 7.85278L29.6234 10.6897L26.4935 11.1438C26.2579 11.178 26.0626 11.3428 25.9887 11.5698C25.9155 11.7957 25.9765 12.0447 26.1468 12.2107L28.4118 14.4177L27.8772 17.5342C27.8369 17.7698 27.9333 18.0066 28.1256 18.1458C28.3191 18.2861 28.5736 18.3057 28.7842 18.1934L31.5832 16.7212L34.3823 18.1934C34.4739 18.2422 34.5739 18.2654 34.6734 18.2654C34.8028 18.2654 34.9316 18.2251 35.0409 18.1458C35.2331 18.0066 35.3296 17.7698 35.2893 17.5342L34.7546 14.4177L37.0196 12.2107C37.1899 12.0447 37.2509 11.7957 37.1777 11.5698C37.1039 11.3428 36.9085 11.178 36.6729 11.1438Z" fill="#FFFAF5"/>
<path d="M20.3333 38.7549C20.6784 38.7549 20.9583 38.4751 20.9583 38.1299C20.9583 37.7847 20.6784 37.5049 20.3333 37.5049C19.9881 37.5049 19.7083 37.7847 19.7083 38.1299C19.7083 38.4751 19.9881 38.7549 20.3333 38.7549Z" fill="#FFFAF5"/>
</svg>
