<svg width="40" height="41" viewBox="0 0 40 41" fill="none" xmlns="http://www.w3.org/2000/svg">
<g clip-path="url(#clip0_411_3978)">
<path d="M37.7721 7.42318C37.5958 6.33037 36.6259 5.51485 35.5072 5.51485C35.5017 5.51485 35.4907 5.51485 35.4852 5.51485C28.5307 5.58553 21.8243 8.0321 16.4955 12.4142C16.3301 10.4895 15.7736 8.61384 14.8533 6.8958C13.5969 4.55253 11.7067 2.59528 9.39774 1.23607C8.46643 0.686951 7.30369 0.839181 6.57628 1.60577C3.11559 5.24301 1.25299 9.99479 1.33565 14.9858C1.41279 19.792 3.28642 24.3154 6.62587 27.7895C6.31177 28.9747 6.07481 30.1817 5.915 31.4104C5.84887 31.9161 6.20707 32.3782 6.72507 32.4489C6.76364 32.4543 6.80773 32.4543 6.8463 32.4543C7.3092 32.4543 7.71148 32.1172 7.77209 31.6497C7.94292 30.372 8.19641 29.1215 8.53807 27.9091C8.57665 27.8276 8.59869 27.746 8.60971 27.659C11.9877 15.9753 22.9099 7.49385 35.5182 7.36337C35.5182 7.36337 35.5182 7.36337 35.5238 7.36337C35.7221 7.36337 35.9095 7.52104 35.9426 7.71133C36.6369 12.0336 36.6589 16.4157 36.0087 20.7434C35.9977 20.776 35.9867 20.8086 35.9811 20.8413C34.6861 26.327 31.0711 31.0136 26.0509 33.6939C21.6259 36.0644 16.4734 36.6842 11.6406 35.4826C13.2717 34.4224 14.8368 33.259 16.3301 31.9922C20.2703 28.6485 23.5822 24.696 26.1722 20.2541C26.4312 19.8137 26.2769 19.2483 25.825 18.9927C25.3786 18.7372 24.8055 18.8894 24.5465 19.3353C20.7662 25.7779 15.3603 31.1604 8.93484 34.9553C8.90729 34.9661 8.88524 34.9824 8.85769 34.9987C6.79671 36.2112 4.63653 37.255 2.38818 38.1249C1.90875 38.3098 1.66628 38.848 1.85916 39.321C2.00243 39.6853 2.35512 39.9082 2.72984 39.9082C2.84557 39.9082 2.96129 39.8865 3.0715 39.843C5.29781 38.9839 7.43594 37.9618 9.4859 36.782C11.7673 37.5432 14.1369 37.9238 16.501 37.9238C20.1049 37.9238 23.6924 37.0484 26.9216 35.3141C32.3551 32.4108 36.2897 27.3546 37.739 21.4339C37.7721 21.3578 37.7997 21.2762 37.8107 21.1892C38.5216 16.6223 38.505 11.9901 37.7721 7.42318Z" fill="#FFFAF5"/>
<path fill-rule="evenodd" clip-rule="evenodd" d="M16.2454 13.0082L16.1966 12.4399C16.0347 10.5559 15.4899 8.71969 14.5888 7.03746C13.3587 4.74337 11.5077 2.82627 9.24555 1.4946C8.43056 1.01406 7.42191 1.15043 6.7939 1.81227C3.38704 5.39293 1.55426 10.0691 1.6356 14.9808C1.71153 19.7106 3.5549 24.1618 6.84216 27.5816L6.95909 27.7033L6.91586 27.8664C6.60512 29.0389 6.37065 30.2331 6.2125 31.4491C6.16842 31.7861 6.40612 32.1026 6.76563 32.1516L6.76694 32.1518C6.7808 32.1538 6.80288 32.1543 6.8463 32.1543C7.16423 32.1543 7.43409 31.9234 7.47458 31.6111L7.47474 31.6099C7.64732 30.3191 7.90357 29.0547 8.24932 27.8278L8.25614 27.8036L8.26688 27.7809C8.29047 27.731 8.3046 27.6805 8.31209 27.6213L8.31503 27.5982L8.32152 27.5757C11.7363 15.765 22.7741 7.19524 35.5151 7.06339L35.5182 7.36337C22.9099 7.49385 11.9877 15.9753 8.60971 27.659C8.59869 27.746 8.57665 27.8276 8.53807 27.9091C8.19641 29.1215 7.94292 30.372 7.77209 31.6497C7.71147 32.1172 7.3092 32.4543 6.8463 32.4543C6.80774 32.4543 6.76363 32.4543 6.72507 32.4489C6.20707 32.3782 5.84887 31.9161 5.915 31.4104C6.07481 30.1817 6.31177 28.9747 6.62587 27.7895C3.28642 24.3154 1.41279 19.792 1.33565 14.9858C1.25299 9.99479 3.11559 5.24301 6.57628 1.60577C7.30369 0.839181 8.46643 0.686951 9.39774 1.23607C11.7067 2.59528 13.5969 4.55253 14.8533 6.8958C15.7163 8.507 16.2595 10.2569 16.4601 12.0557C16.4734 12.175 16.4852 12.2945 16.4955 12.4142C16.5884 12.3377 16.6818 12.2619 16.7756 12.1866C22.0583 7.94746 28.6521 5.5843 35.4852 5.51485H35.5072C36.6259 5.51485 37.5958 6.33037 37.7721 7.42318C38.505 11.9901 38.5216 16.6223 37.8107 21.1892C37.7997 21.2762 37.7721 21.3578 37.739 21.4339C36.2897 27.3546 32.3551 32.4108 26.9216 35.3141C23.6924 37.0484 20.1049 37.9238 16.501 37.9238C14.1369 37.9238 11.7673 37.5432 9.4859 36.782C7.43594 37.9618 5.29781 38.9839 3.0715 39.843C2.96129 39.8865 2.84557 39.9082 2.72984 39.9082C2.35512 39.9082 2.00243 39.6853 1.85916 39.321C1.66628 38.848 1.90875 38.3098 2.38818 38.1249C4.63653 37.255 6.79671 36.2112 8.85769 34.9987C8.8654 34.9942 8.87268 34.9896 8.87976 34.9852C8.89801 34.9737 8.915 34.9631 8.93484 34.9553C15.3603 31.1604 20.7662 25.7779 24.5465 19.3353C24.8055 18.8894 25.3786 18.7372 25.825 18.9927C26.2769 19.2483 26.4312 19.8137 26.1722 20.2541C23.5822 24.696 20.2703 28.6485 16.3301 31.9922C14.942 33.1697 13.4919 34.258 11.9844 35.257C11.8701 35.3327 11.7555 35.4079 11.6406 35.4826C11.7743 35.5159 11.9083 35.5477 12.0425 35.5782C16.758 36.6485 21.7483 35.9988 26.0509 33.6939C31.0711 31.0136 34.6861 26.327 35.9811 20.8413C35.9867 20.8086 35.9977 20.776 36.0087 20.7434C36.6589 16.4157 36.6369 12.0336 35.9426 7.71133C35.9095 7.52104 35.7221 7.36337 35.5238 7.36337H35.5182L35.5183 7.06337H35.5233C35.8654 7.06337 36.1797 7.32382 36.2381 7.65997L36.2388 7.66374C36.938 12.0165 36.9602 16.4297 36.3054 20.788L36.3014 20.8142L36.2929 20.8394C36.2804 20.8765 36.2778 20.8862 36.277 20.8912L36.2753 20.9008L36.2731 20.9102C34.9582 26.4803 31.288 31.2377 26.1926 33.9584C21.7014 36.3643 16.4726 36.9931 11.5682 35.7738L10.8984 35.6072L11.4771 35.2311C13.0976 34.1778 14.6524 33.0219 16.136 31.7634C20.0503 28.4418 23.3402 24.5154 25.913 20.103L25.9136 20.102C26.0859 19.8089 25.9861 19.4285 25.6773 19.2539L25.676 19.2531C25.3722 19.0792 24.9817 19.1833 24.8059 19.486L24.8053 19.4871C20.9988 25.9743 15.556 31.3931 9.0874 35.2136L9.067 35.2256L9.05124 35.2318C9.05121 35.2318 9.05126 35.2318 9.05124 35.2318L9.03679 35.2408C9.03024 35.2449 9.02092 35.2507 9.01051 35.2569C6.93539 36.4776 4.75983 37.529 2.49643 38.4047C2.16794 38.5314 2.00979 38.8959 2.13695 39.2077L2.13836 39.2112C2.2342 39.4549 2.472 39.6082 2.72984 39.6082C2.80786 39.6082 2.88623 39.5936 2.96138 39.5639L2.9635 39.5631C5.17537 38.7096 7.29959 37.6942 9.33626 36.522L9.45304 36.4548L9.58085 36.4974C11.8316 37.2484 14.1691 37.6238 16.501 37.6238C20.0565 37.6238 23.595 36.7602 26.7797 35.0498C32.1387 32.1863 36.0188 27.1997 37.4476 21.3625L37.4537 21.3378L37.4639 21.3143C37.4904 21.2532 37.5069 21.2004 37.5131 21.1515L37.5141 21.1431C38.2201 16.6074 38.2039 12.0069 37.4759 7.47071C37.3234 6.52626 36.4815 5.81485 35.5072 5.81485H35.4868C28.6012 5.88518 21.9614 8.30772 16.686 12.6459L16.2454 13.0082Z" fill="#B6312C"/>
</g>
<defs>
<clipPath id="clip0_411_3978">
<rect width="40" height="40" fill="white" transform="translate(0 0.629883)"/>
</clipPath>
</defs>
</svg>
