<svg width="394" height="140" viewBox="0 0 394 140" fill="none" xmlns="http://www.w3.org/2000/svg">
<path d="M196.89 139.12C305.629 139.12 393.78 107.977 393.78 69.56C393.78 31.1431 305.629 0 196.89 0C88.1507 0 0 31.1431 0 69.56C0 107.977 88.1507 139.12 196.89 139.12Z" fill="#BC2F2C"/>
<path d="M290.62 85.4902C290.51 87.7702 288.65 89.4702 286.38 89.3602C284.1 89.2502 282.44 87.3802 282.55 85.1302C282.66 82.8802 284.49 81.1802 286.79 81.2902C289.09 81.4002 290.73 83.2202 290.62 85.5002V85.4902ZM289.96 85.4602C290.05 83.5402 288.7 82.0102 286.76 81.9102C284.82 81.8102 283.29 83.2502 283.2 85.1602C283.11 87.0702 284.48 88.6402 286.41 88.7302C288.34 88.8202 289.87 87.3802 289.96 85.4602ZM287.73 86.0802L288.66 87.6702L287.68 87.6202L286.85 86.2002H286.72L285.83 86.1502L285.76 87.5202L284.78 87.4702L284.99 82.9602L286.86 83.0502C288.05 83.1102 288.73 83.7602 288.68 84.7102C288.65 85.3802 288.3 85.8502 287.71 86.0602L287.73 86.0802ZM286.71 85.4402C287.35 85.4702 287.73 85.1902 287.75 84.6902C287.77 84.1902 287.42 83.8802 286.78 83.8502L285.93 83.8102L285.85 85.4002L286.7 85.4402H286.71Z" fill="#FFF7D0"/>
<path d="M293.059 84.6505C293.089 84.9605 293.089 85.2705 293.079 85.5905C293.079 85.8605 293.039 86.1305 292.989 86.3905C306.079 87.0205 318.899 87.7805 331.389 88.6705L333.029 87.0305C320.039 86.1005 306.689 85.3005 293.059 84.6405V84.6505ZM200.319 82.4805C153.889 82.4805 108.929 84.0505 67.6094 87.0405L69.2494 88.6805C110.109 85.7605 154.499 84.2305 200.319 84.2305C227.569 84.2305 254.319 84.7704 280.119 85.8304C280.099 85.5604 280.089 85.2905 280.119 85.0105C280.139 84.6905 280.169 84.3804 280.229 84.0804C254.399 83.0304 227.619 82.4805 200.329 82.4805H200.319Z" fill="#FFF7D0"/>
<path d="M76.7104 67.4808C76.7104 71.2808 76.7104 73.1708 76.7104 76.9708C74.2104 77.9708 71.5604 78.5708 67.9804 78.8508C61.4104 79.3708 56.2104 74.5108 56.2404 67.9408C56.2704 61.2908 61.6104 56.4408 68.1904 56.5608C71.3104 56.6208 73.3804 56.9108 75.4004 57.3408C75.7504 59.5908 75.9204 60.7108 76.2704 62.9408C74.6204 62.1708 73.8004 61.7808 72.1504 60.9908C70.9504 60.8808 69.7504 60.8308 68.4804 60.8408C65.1404 60.8808 62.4704 62.7508 62.4704 67.7508C62.4704 72.7508 64.7404 74.7708 68.3704 74.6008C69.4704 74.5508 70.4104 74.4408 71.4504 74.2108C71.4504 72.8408 71.4504 72.1508 71.4504 70.7808C70.7504 69.5408 70.4004 68.9208 69.7004 67.6808C72.5004 67.6008 73.9104 67.5608 76.7104 67.4908V67.4808Z" fill="#FFF7D0"/>
<path d="M81.6094 74.6403C83.3794 73.0603 84.2594 72.2802 86.0294 70.7402C87.7894 72.1702 88.6794 72.8702 90.4394 74.2702C88.6694 75.8002 87.7894 76.5702 86.0194 78.1302C84.2594 76.7502 83.3694 76.0502 81.6094 74.6302V74.6403Z" fill="#FFF7D0"/>
<path d="M96.1108 73.8398C96.1108 68.3398 96.1208 65.5899 96.1308 60.0999C95.8108 58.8999 95.6508 58.2999 95.3208 57.0999C99.8808 57.0999 102.161 57.0998 106.721 57.0898C112.531 57.0898 114.961 59.1699 114.961 63.6399C114.961 68.0199 112.351 70.1498 106.481 70.3098C104.811 70.3598 103.971 70.3798 102.291 70.4298C102.291 71.7098 102.291 72.3499 102.291 73.6299C102.811 74.7999 103.071 75.3799 103.581 76.5399C100.271 76.6699 98.6108 76.7399 95.3008 76.8899C95.6308 75.6699 95.7908 75.0599 96.1208 73.8499L96.1108 73.8398ZM105.671 66.7398C108.071 66.6898 108.921 65.9798 108.921 63.8098C108.921 61.5498 108.081 60.7199 105.741 60.7299C104.321 60.7399 103.621 60.7499 102.201 60.7599C102.201 63.1799 102.201 64.3898 102.201 66.8098C103.591 66.7798 104.281 66.7698 105.671 66.7398Z" fill="#FFF7D0"/>
<path d="M119.95 69.2803C119.95 65.5403 119.95 63.6703 119.96 59.9403C119.65 58.7903 119.49 58.2203 119.18 57.0703C122.28 57.0703 123.84 57.0703 126.94 57.0703C126.61 58.2003 126.45 58.7703 126.12 59.9103C126.12 63.7403 126.12 65.6603 126.11 69.5003C126.11 71.5503 127.44 72.5603 130.29 72.4903C133.11 72.4203 134.54 71.3603 134.55 69.3403C134.55 65.5503 134.55 63.6603 134.56 59.8803C134.25 58.7603 134.09 58.2003 133.78 57.0803C136.56 57.0803 137.95 57.0803 140.73 57.0803C140.42 58.1903 140.26 58.7503 139.95 59.8603C139.95 63.4803 139.95 65.3003 139.94 68.9203C139.94 73.5203 136.81 75.9903 129.93 76.2003C123.05 76.4103 119.93 74.0503 119.94 69.3103L119.95 69.2803Z" fill="#FFF7D0"/>
<path d="M162.55 70.5308C162.22 72.2808 162.06 73.1508 161.73 74.9008C155.25 75.0008 152.01 75.0708 145.52 75.2108C145.83 74.1008 145.99 73.5408 146.3 72.4308C146.3 67.3808 146.3 64.8608 146.32 59.8108C146.01 58.7108 145.85 58.1608 145.54 57.0508C148.64 57.0508 150.2 57.0508 153.3 57.0508C152.97 58.1508 152.81 58.6908 152.49 59.7908C152.49 64.4308 152.49 66.7608 152.48 71.4008C155.18 71.3608 156.53 71.3408 159.23 71.3008C160.56 70.9908 161.22 70.8408 162.54 70.5308H162.55Z" fill="#FFF7D0"/>
<path d="M183.52 70.351C183.19 72.071 183.03 72.931 182.71 74.651C176.23 74.701 172.99 74.731 166.5 74.821C166.81 73.731 166.97 73.191 167.28 72.111C167.28 67.161 167.28 64.691 167.28 59.741C166.97 58.661 166.81 58.121 166.5 57.041C169.6 57.041 171.16 57.041 174.26 57.041C173.93 58.121 173.77 58.661 173.45 59.731C173.45 64.291 173.45 66.581 173.45 71.141C176.15 71.121 177.5 71.111 180.21 71.091C181.54 70.791 182.2 70.651 183.52 70.351Z" fill="#FFF7D0"/>
<path d="M209.541 74.6212C206.541 74.6112 205.041 74.6013 202.041 74.6013C201.961 73.6813 201.921 73.2212 201.841 72.3012C201.711 72.0412 201.651 71.9013 201.521 71.6413C198.001 71.6413 196.241 71.6413 192.721 71.6413C192.591 71.9013 192.531 72.0412 192.401 72.3012C192.321 73.2212 192.281 73.6813 192.201 74.6013C189.641 74.6013 188.361 74.6113 185.801 74.6313C188.511 69.3813 191.231 64.1313 193.951 58.8813C193.571 58.1413 193.391 57.7713 193.011 57.0312C196.051 57.0312 197.571 57.0312 200.611 57.0312C203.591 62.8913 206.571 68.7512 209.541 74.6212ZM199.991 68.4413C198.851 66.0713 198.281 64.8813 197.131 62.5113C195.991 64.8813 195.421 66.0713 194.271 68.4413C196.561 68.4413 197.701 68.4413 199.991 68.4413Z" fill="#FFF7D0"/>
<path d="M243.031 75.0113C239.721 74.9513 238.061 74.9212 234.751 74.8712C234.631 73.9612 234.571 73.5012 234.461 72.5812C233.241 70.9012 232.631 70.0613 231.401 68.3913C230.221 68.3813 229.631 68.3712 228.441 68.3712C228.441 69.8612 228.441 70.6012 228.441 72.0812C228.771 73.1612 228.931 73.7013 229.251 74.7913C226.131 74.7513 224.571 74.7313 221.461 74.7013C221.781 73.6313 221.951 73.0912 222.271 72.0212C222.271 67.1012 222.271 64.6413 222.271 59.7213C221.941 58.6413 221.781 58.1113 221.461 57.0312C226.141 57.0312 228.471 57.0312 233.151 57.0312C238.901 57.0312 241.331 59.0012 241.341 62.6812C241.341 64.9812 239.951 66.7213 236.931 67.4413C239.371 70.4413 240.601 71.9513 243.041 75.0013L243.031 75.0113ZM231.751 65.0013C234.021 65.0113 235.321 64.3512 235.321 62.7412C235.321 61.1012 234.441 60.3512 232.171 60.3412C230.621 60.3412 229.851 60.3412 228.311 60.3312C228.311 62.1912 228.311 63.1213 228.311 64.9813C229.691 64.9813 230.381 64.9913 231.751 65.0013Z" fill="#FFF7D0"/>
<path d="M265.39 71.1613C265.08 72.9013 264.93 73.7713 264.62 75.5013C258.63 75.3313 252.65 75.1913 246.66 75.0713C246.97 73.9813 247.13 73.4312 247.44 72.3412C247.44 67.3212 247.44 64.8113 247.43 59.7812C247.12 58.6812 246.96 58.1313 246.65 57.0312C252.52 57.0312 258.38 57.0313 264.25 57.0413C264.55 58.7813 264.7 59.6612 265 61.4012C263.69 61.0912 263.03 60.9413 261.72 60.6313C258.46 60.6113 256.83 60.6012 253.57 60.5912C253.57 62.0712 253.57 62.8113 253.57 64.2913C255.86 64.3113 257 64.3213 259.28 64.3513C260.15 64.1913 260.58 64.1212 261.45 63.9612C261.45 65.6712 261.45 66.5313 261.45 68.2513C260.58 68.0713 260.14 67.9812 259.27 67.8012C256.98 67.7712 255.84 67.7513 253.56 67.7213C253.56 69.3013 253.56 70.0813 253.56 71.6613C256.96 71.7213 258.66 71.7612 262.07 71.8312C263.39 71.5612 264.06 71.4212 265.38 71.1512L265.39 71.1613Z" fill="#FFF7D0"/>
<path d="M270.56 72.8499C270.56 67.6699 270.55 65.0799 270.54 59.8999C270.23 58.7699 270.07 58.1999 269.76 57.0699C273.56 57.0699 275.47 57.0699 279.27 57.0699C285.42 56.6099 291.11 60.2799 291.13 66.7299C291.16 73.1999 285.36 76.6399 279.29 75.9499C275.49 75.8199 273.58 75.7599 269.78 75.6499C270.09 74.5299 270.25 73.9699 270.56 72.8399V72.8499ZM279.58 72.2099C283.22 72.3099 284.77 71.0399 284.77 66.6099C284.77 62.1599 283.3 60.8199 279.67 60.7999C278.48 60.7999 277.88 60.7899 276.68 60.7799C276.68 65.3199 276.68 67.5899 276.7 72.1299C277.86 72.1599 278.43 72.1799 279.59 72.2099H279.58Z" fill="#FFF7D0"/>
<path d="M296.659 73.6399C296.659 68.2099 296.649 65.4899 296.639 60.0599C296.329 58.8699 296.169 58.2799 295.859 57.0899C299.659 57.0899 301.569 57.0899 305.369 57.0999C311.829 56.6199 317.199 60.7999 317.229 67.3299C317.259 73.8799 311.759 77.7899 305.389 76.9899C301.589 76.8199 299.679 76.7399 295.879 76.5799C296.189 75.4099 296.349 74.8199 296.659 73.6399ZM305.679 73.0399C309.319 73.1699 310.869 71.8399 310.869 67.1699C310.869 62.4699 309.399 61.0599 305.769 61.0199C304.579 61.0099 303.979 60.9999 302.779 60.9899C302.779 65.7699 302.779 68.1599 302.789 72.9299C303.949 72.9699 304.519 72.9899 305.679 73.0299V73.0399Z" fill="#FFF7D0"/>
<path d="M333.691 75.1913C334.001 76.5013 334.161 77.1613 334.471 78.4713C331.381 78.2913 329.841 78.2114 326.751 78.0414C327.061 76.7814 327.221 76.1614 327.531 74.8914C327.531 73.0114 327.531 72.0713 327.531 70.1913C324.071 64.8413 322.351 62.2313 318.891 57.1113C322.361 57.1113 324.091 57.1113 327.561 57.1213C327.701 58.4013 327.781 59.0313 327.921 60.3113C329.211 62.7013 329.851 63.9013 331.141 66.3313C332.451 63.9713 333.111 62.7813 334.421 60.3713C334.581 59.0713 334.651 58.4313 334.811 57.1313C337.771 57.1313 339.251 57.1314 342.211 57.1414C338.811 62.5514 337.111 65.1913 333.711 70.3713C333.711 72.2913 333.711 73.2613 333.711 75.1813L333.691 75.1913Z" fill="#FFF7D0"/>
<path d="M120.691 103.299L117.881 103.469L117.711 102.559L117.481 102.169L113.391 102.409L113.201 102.829L113.121 103.749L110.721 103.889L113.991 97.2692L113.591 96.6192L116.471 96.4492L120.691 103.299ZM116.821 101.059L115.271 98.4592L113.961 101.229L116.821 101.059Z" fill="#FFF7D0"/>
<path d="M130.27 102.64L129.86 100.92L131.63 101.57C132.41 101.69 133.02 101.74 133.67 101.71C134.84 101.66 135.41 101.31 135.39 100.78C135.37 100.26 134.92 99.9998 133.25 99.7598C130.89 99.4198 129.84 98.8498 129.8 97.6398C129.76 96.4198 131 95.5098 133.58 95.3898C134.78 95.3398 135.8 95.3898 136.88 95.5398L137.28 97.1998L135.56 96.6298C134.98 96.5298 134.43 96.4998 133.8 96.5298C132.76 96.5798 132.09 96.8998 132.11 97.3798C132.13 97.8598 132.5 98.1398 134.19 98.3898C136.62 98.7398 137.67 99.3398 137.71 100.52C137.76 101.81 136.39 102.75 133.84 102.86C132.22 102.93 131.1 102.77 130.27 102.67V102.64Z" fill="#FFF7D0"/>
<path d="M139.91 95.2695L142.68 95.1696L142.79 96.2095L144.48 100.5L145.91 96.1095L145.54 95.0695L148.19 94.9695L148.29 96.0096L149.94 100.3L151.39 95.8995L151.46 94.8495L153.72 94.7695L151.01 101.96L148.7 102.04L146.98 97.7495L145.46 102.15L143.06 102.24L139.91 95.2596V95.2695Z" fill="#FFF7D0"/>
<path d="M164.511 100.12L164.261 101.59L156.691 101.79L156.981 100.74L156.881 95.74L156.551 94.7L163.981 94.5L164.311 95.96L162.911 95.72L159.141 95.82L159.181 97.55L161.891 97.48L162.871 97.3L162.901 98.74L161.911 98.62L159.201 98.69L159.241 100.54L163.151 100.44L164.531 100.13L164.511 100.12Z" fill="#FFF7D0"/>
<path d="M175.291 99.9091L175.031 101.379L167.461 101.519L167.761 100.469L167.691 95.4691L167.361 94.429L174.791 94.2891L175.111 95.7491L173.711 95.4991L169.941 95.5691L169.971 97.299L172.681 97.2491L173.671 97.079L173.691 98.519L172.701 98.3891L169.991 98.4391L170.021 100.289L173.931 100.219L175.311 99.9191L175.291 99.9091Z" fill="#FFF7D0"/>
<path d="M183.25 95.4104L183.29 100.23L183.79 101.27L180.51 101.31L181.01 100.26L180.97 95.4404L179.32 95.4604L177.91 95.7404L178.21 94.2404L185.99 94.1504L186.3 95.6404L184.9 95.3904L183.25 95.4104Z" fill="#FFF7D0"/>
<path d="M201.07 95.3298V100.15L201.55 101.2H198.27L198.78 100.14V95.3199H197.14L195.73 95.5798L196.04 94.0898L203.82 94.1098L204.11 95.6098L202.71 95.3398H201.06L201.07 95.3298Z" fill="#FFF7D0"/>
<path d="M215.92 101.27L212.76 101.24L212.57 100.37L211.01 98.5696H209.43V100.15L209.75 101.21L206.84 101.19L207.16 100.14L207.19 95.1496L206.89 94.0996L211.76 94.1396C214.17 94.1596 215.23 94.9396 215.22 96.3496C215.22 97.2896 214.56 97.9996 213.17 98.2796L215.93 101.27H215.92ZM211.18 97.3996C212.31 97.3996 212.96 97.0796 212.97 96.3596C212.97 95.6396 212.51 95.2896 211.38 95.2796L209.39 95.2596V97.3796L211.18 97.3896V97.3996Z" fill="#FFF7D0"/>
<path d="M228.31 101.46L225.5 101.41L225.38 100.49L225.17 100.08L221.08 100.01L220.86 100.41L220.72 101.33L218.32 101.29L221.97 94.93L221.61 94.25L224.49 94.3L228.3 101.45L228.31 101.46ZM224.59 98.94L223.2 96.23L221.73 98.9L224.6 98.95L224.59 98.94Z" fill="#FFF7D0"/>
<path d="M231.32 100.48L231.42 95.4797L231.13 94.4297L235.1 94.5297C238.62 94.6197 240.16 95.7697 240.11 98.1997C240.06 100.62 238.47 101.71 234.96 101.62L230.99 101.52L231.32 100.48ZM235.08 100.41C236.9 100.45 237.73 99.8897 237.76 98.1397C237.79 96.3797 237.01 95.7697 235.19 95.7297L233.65 95.6897L233.56 100.38L235.07 100.42L235.08 100.41Z" fill="#FFF7D0"/>
<path d="M243.42 100.8L243.54 95.8002L243.25 94.7402L246.13 94.8302L245.81 95.8702L245.69 100.87L245.96 101.93L243.08 101.84L243.42 100.8Z" fill="#FFF7D0"/>
<path d="M254.16 96.3497L254.02 101.16L254.48 102.22L251.21 102.1L251.75 101.07L251.89 96.2597L250.24 96.1997L248.82 96.4097L249.17 94.9297L256.95 95.2197L257.2 96.7297L255.81 96.4097L254.16 96.3497Z" fill="#FFF7D0"/>
<path d="M260.09 101.4L260.26 96.3998L259.98 95.3398L262.86 95.4598L262.53 96.4898L262.36 101.49L262.62 102.55L259.74 102.43L260.09 101.4Z" fill="#FFF7D0"/>
<path d="M265.78 99.1494C265.87 96.7594 267.73 95.4994 270.72 95.6394C273.71 95.7894 275.45 97.2294 275.36 99.6194C275.27 101.999 273.39 103.289 270.43 103.139C267.55 102.999 265.69 101.519 265.78 99.1394V99.1494ZM272.99 99.5094C273.06 97.7494 272.16 96.9794 270.67 96.8994C269.22 96.8294 268.2 97.4994 268.13 99.2594C268.06 101.009 268.98 101.789 270.45 101.869C271.92 101.939 272.92 101.259 272.99 99.5094Z" fill="#FFF7D0"/>
<path d="M287.79 96.7997L287.43 97.8297L287.15 103.87L284.09 103.69L280.64 97.8498L280.46 102.42L280.71 103.49L278.26 103.34L278.62 102.3L278.85 97.3198L278.59 96.2598L281.96 96.4597L285.41 102.3L285.59 97.7198L285.34 96.6598L287.79 96.8098V96.7997Z" fill="#FFF7D0"/>
<path d="M162.629 40.5498C162.839 40.6798 163.089 40.6698 163.319 40.6398C163.589 40.6198 163.849 40.5598 164.109 40.4998C164.949 40.3098 165.789 40.1398 166.639 39.9898C167.199 39.8998 167.799 39.8498 168.329 39.6598C168.499 39.5998 168.619 39.5198 168.699 39.4198C168.769 39.3398 168.859 39.1898 168.829 38.9498C168.799 38.7598 168.699 38.5498 168.519 38.5198C168.449 38.5098 168.379 38.5198 168.309 38.5298C168.039 38.5898 167.789 38.7098 167.519 38.7798C167.229 38.8598 166.929 38.9198 166.629 38.9798C165.989 39.0998 165.339 39.1898 164.689 39.2498C164.059 39.3098 163.419 39.3198 162.789 39.3598C162.689 39.3598 162.549 39.4198 162.439 39.6298C162.309 39.8798 162.349 40.2598 162.539 40.4598C162.569 40.4898 162.599 40.5198 162.639 40.5398L162.629 40.5498Z" fill="#FFF7D0"/>
<path d="M226.979 32.4801L226.459 32.2001C226.229 32.0801 226.089 32.3701 226.049 32.5601C225.979 32.9101 225.819 33.2501 225.709 33.5901C225.589 33.9601 225.459 34.3301 225.319 34.7001C225.069 35.3401 224.699 35.9401 224.249 36.4401C224.029 36.6901 223.779 36.9101 223.499 37.0801C223.289 37.2101 223.039 37.3001 222.939 37.5601C222.839 37.8401 222.919 38.1801 223.149 38.3501C223.439 38.5801 223.739 38.4201 223.989 38.2101C224.329 37.9201 224.629 37.5901 224.919 37.2401C224.979 37.1701 225.039 37.0801 225.109 36.9901C225.149 36.9401 225.199 36.9201 225.189 36.9601C225.029 37.8601 224.919 38.5001 224.849 38.9901C224.809 39.3001 224.519 41.7501 223.989 46.2801C223.949 46.5901 223.909 46.9001 223.869 47.2101C223.839 47.4401 223.799 47.6901 223.939 47.8901C224.139 48.1901 224.539 48.2001 224.799 47.9901C224.939 47.8801 225.009 47.7201 225.019 47.5401C225.049 47.2201 225.059 46.9101 225.089 46.5901C225.149 46.0801 225.199 45.5801 225.259 45.0701C225.339 44.3601 225.419 43.6401 225.499 42.9301C225.679 41.3001 225.789 40.3001 225.799 40.2201C225.819 39.9101 225.849 39.4901 225.899 38.9601C225.949 38.4401 226.019 37.8501 226.119 37.1501C226.219 36.5601 226.309 36.0801 226.399 35.7101C226.539 35.1301 226.719 34.5601 226.889 33.9801C226.969 33.6901 227.049 33.4001 227.119 33.1101C227.169 32.9001 227.229 32.6201 227.009 32.4901L226.979 32.4801Z" fill="#FFF7D0"/>
<path d="M234.29 31.5307C234.32 31.4407 234.32 31.3407 234.29 31.2407C234.25 31.1107 234.15 30.9307 233.89 30.8407C233.49 30.7007 233.01 30.9207 232.67 31.1507C232.62 31.1807 227.8 34.7607 228.25 38.0207C228.32 38.5207 228.56 38.7207 228.74 38.8007C229.49 39.1107 230.75 38.0807 231.94 37.0107C231.98 36.9807 232.08 36.8607 232.02 37.0707C231.9 37.4607 231.83 37.7707 231.72 38.3207C231.53 39.2207 231.37 40.0507 231.24 40.8007C231.19 41.0607 231.15 41.3007 231.1 41.5407C230.96 42.2407 230.85 42.8807 230.77 43.4407C230.69 43.9907 230.63 44.4707 230.59 44.8807C230.55 45.2907 230.52 45.6408 230.51 45.9208C230.5 46.2908 230.47 46.6607 230.47 47.0407C230.47 47.3807 230.45 47.7307 230.66 48.0007C230.92 48.3307 231.37 48.2907 231.55 47.9007C231.62 47.7507 231.65 47.5707 231.63 47.3707L231.55 46.1907C231.55 46.0207 231.55 45.8107 231.55 45.5707C231.55 45.3207 231.57 45.0307 231.6 44.6807C231.63 44.3307 231.67 43.9207 231.72 43.4607C231.78 43.0007 231.86 42.4607 231.96 41.8507C232.02 41.4807 232.08 41.1307 232.15 40.8007C232.22 40.4707 232.29 40.1407 232.36 39.8107C232.4 39.6307 232.45 39.4507 232.5 39.2607C232.55 39.0607 232.61 38.8507 232.67 38.6207C232.72 38.4307 232.78 38.2207 232.84 38.0007L232.87 37.8807C232.94 37.6107 233.03 37.3207 233.13 36.9907C233.18 36.8307 233.22 36.6707 233.27 36.5307C233.32 36.3807 233.36 36.2407 233.4 36.0907C233.4 36.0807 233.4 36.0607 233.4 36.0507L234.02 33.9607C234.11 33.6707 234.19 33.3907 234.27 33.1107C234.35 32.8307 234.44 32.5307 234.55 32.1907C234.69 31.7307 234.46 31.6408 234.3 31.6408C234.26 31.6408 234.23 31.6107 234.25 31.5407L234.29 31.5307ZM233.6 32.1408L232.52 35.0307C232.01 35.5807 231.47 36.1007 230.91 36.5707C230.66 36.7807 230.4 36.9908 230.13 37.1708C229.96 37.2808 229.39 37.7007 229.28 37.3607C229.24 37.2307 229.26 37.0707 229.29 36.9407C229.38 36.5407 229.62 36.1807 229.84 35.8507C230.45 34.9607 231.2 34.1807 231.96 33.4407C232.39 33.0307 232.83 32.5507 233.33 32.2407C233.46 32.1607 233.69 31.9908 233.62 32.1408H233.6Z" fill="#FFF7D0"/>
<path d="M219.34 39.9496C219.25 39.8996 219.16 39.8795 219.07 39.8795C218.89 39.8795 218.71 39.9795 218.57 40.1095C218.33 40.3195 218.13 40.5696 217.91 40.7896C217.64 41.0496 217.37 41.2996 217.1 41.5396C216.44 42.1196 215.74 42.6696 215.01 43.1396C214.84 43.2496 214.67 43.3495 214.49 43.4595C213.77 43.8795 213.02 44.2195 212.23 44.4595C211.49 44.6795 210.74 44.8195 209.98 44.8595C209.84 44.8595 209.7 44.8695 209.57 44.8695C208.77 44.8795 207.47 44.8295 206.84 44.1095C206.69 43.9595 206.66 43.8595 206.66 43.8595C206.79 43.7895 206.98 43.6895 207.1 43.6195C207.69 43.2895 208.27 42.9395 208.84 42.5695C209.34 42.2395 209.83 41.8895 210.18 41.3995C210.51 40.9395 210.69 40.2896 210.42 39.7596C210.13 39.1896 209.45 39.0796 208.87 39.1696C207.72 39.3496 206.63 40.3695 206 41.2995C205.58 41.9195 205.4 42.6795 205.52 43.3695C205.3 43.4795 205.08 43.5895 204.86 43.7095C203.89 44.1695 202.1 44.9496 201.12 45.2896C200.25 45.5896 199.33 45.7995 198.42 45.8595C197.92 45.8895 197.42 45.8596 196.93 45.7596C196.52 45.6696 195.93 45.5396 195.78 45.0396C195.74 44.9196 195.74 44.7896 195.74 44.6696C195.76 43.9296 196.08 43.2895 196.59 42.8095C196.77 42.6495 196.95 42.5095 197.16 42.4095C197.36 42.3195 197.58 42.2195 197.68 41.9995C197.76 41.8395 197.77 41.6696 197.73 41.5096C197.68 41.3296 197.56 41.1895 197.39 41.1095C196.9 40.8795 196.28 41.4496 195.92 41.7596C195.47 42.1396 195.08 42.5795 194.66 42.9995C194.03 43.6095 193.35 44.1695 192.64 44.6595C192 45.0995 191.33 45.4795 190.62 45.7795C189.12 46.4195 187.44 46.5696 185.98 45.6996C185.76 45.5696 185.55 45.4195 185.35 45.2495C185.06 44.9995 184.78 44.7095 184.54 44.4095C184.3 44.1095 184.09 43.7895 183.89 43.4695C183.72 43.1795 183.5 42.8495 183.17 42.7795C182.88 42.7195 182.58 43.0495 182.36 43.2095C181.98 43.4895 181.61 43.7795 181.24 44.0695C180.32 44.7995 179.41 45.5596 178.47 46.2596C178.09 46.5396 177.71 46.8095 177.3 47.0495C176.91 47.2795 176.47 47.5495 176.02 47.6295C175.91 47.6495 175.86 47.5996 175.89 47.4796C175.93 47.3296 176 47.1796 176.06 47.0396C176.17 46.7796 176.28 46.5295 176.4 46.2795C176.62 45.8295 176.85 45.3795 177.09 44.9395C177.3 44.5495 177.76 43.9195 177.52 43.4595C177.38 43.1895 177.1 43.0896 176.83 43.1696C176.68 43.2096 176.54 43.2995 176.4 43.3795C175.79 43.7595 175.19 44.1395 174.57 44.4895C172.96 45.4095 171.29 46.2295 169.61 46.9695C169.48 47.0295 169.35 47.0796 169.22 47.1396C168.65 47.3696 168.1 47.5795 167.56 47.7795C166.3 48.2295 164.96 48.6495 163.63 48.5795C162.93 48.5495 162.2 48.2595 162.18 47.3695C162.17 46.7295 162.45 46.0395 162.73 45.4895C162.85 45.2495 162.99 44.9996 162.94 44.7296C162.87 44.3496 162.49 44.2395 162.2 44.3795C161.83 44.5595 161.54 44.8795 161.2 45.0995C160.51 45.5695 159.76 45.9695 158.99 46.2495C158.59 46.4095 158.12 46.5895 157.56 46.7795C157.48 46.8095 157.39 46.8395 157.3 46.8595C157.19 46.8895 157.08 46.9195 156.98 46.9595C156.57 47.0895 156.1 47.2496 155.6 47.4196C155.15 47.5796 154.67 47.7496 154.16 47.9496C154.12 47.8396 154.07 47.7396 154.02 47.6396C153.94 47.4696 153.86 47.3195 153.78 47.1795C153.67 46.9695 153.55 46.7595 153.41 46.5495C153.28 46.3395 153.14 46.1495 153.01 45.9595C152.78 45.6195 152.51 45.2495 152.2 44.8495C151.9 44.4595 151.56 44.0295 151.18 43.5495L150.65 42.8795C150.43 42.5995 150.21 42.2995 149.97 41.9895C149.74 41.6795 149.49 41.3196 149.22 40.9196C149.08 40.7096 148.94 40.4795 148.81 40.2395C148.68 40.0095 148.55 39.7495 148.44 39.4695C148.44 39.4595 148.44 39.4495 148.43 39.4395C148.39 39.3195 148.35 39.1995 148.32 39.0795C148.29 38.9495 148.27 38.8195 148.27 38.6895C148.27 38.5695 148.28 38.4595 148.32 38.3395C148.35 38.2295 148.41 38.1396 148.49 38.0396C148.58 37.9296 148.69 37.8296 148.81 37.7596C148.94 37.6796 149.08 37.6095 149.21 37.5595C149.35 37.5095 149.5 37.4596 149.65 37.4196C149.81 37.3796 149.96 37.3395 150.11 37.3095C150.27 37.2795 150.44 37.2596 150.61 37.2296C150.78 37.2096 150.94 37.1895 151.1 37.1795L151.49 37.1495C151.63 37.1495 151.75 37.1395 151.87 37.1295C152.97 37.1095 154.29 37.0695 155.28 37.6795C155.48 37.7995 155.67 37.9596 155.78 38.1696C156.07 38.7096 155.82 39.4595 155.59 39.9695C155.37 40.4595 155.07 40.9095 154.76 41.3395C154.54 41.6395 154.3 41.9096 154.19 42.2896C154.07 42.6796 154.23 43.1195 154.67 43.0595C155.24 42.9795 155.61 42.3195 155.91 41.8595C156.44 41.0395 156.93 40.0296 157.01 39.0096C157.06 38.2996 156.84 37.5395 156.34 37.0595C156.2 36.9195 156.03 36.7895 155.84 36.6795C155.66 36.5695 155.46 36.4795 155.26 36.3995C155.06 36.3195 154.85 36.2495 154.63 36.2095C154.43 36.1695 154.22 36.1295 154.01 36.0995C153.58 36.0495 153.12 36.0295 152.68 36.0195C152.23 36.0195 151.75 36.0395 151.2 36.0795C150.94 36.0995 150.67 36.1296 150.4 36.1696C150.13 36.2096 149.84 36.2595 149.56 36.3295C149.43 36.3695 149.29 36.4095 149.13 36.4595C148.97 36.5095 148.82 36.5695 148.67 36.6495C148.53 36.7195 148.39 36.8095 148.23 36.9095C148.08 37.0195 147.92 37.1495 147.78 37.3195C147.64 37.4795 147.54 37.6695 147.46 37.8795C147.38 38.0895 147.34 38.2995 147.34 38.4995C147.33 38.6895 147.34 38.8695 147.37 39.0695C147.4 39.2495 147.45 39.4195 147.5 39.5695C147.6 39.8595 147.71 40.1396 147.84 40.3896C147.96 40.6396 148.09 40.8695 148.22 41.0695C149.25 42.7095 150.5 44.1595 151.6 45.7395C151.79 46.0195 151.98 46.2995 152.17 46.5895C152.38 46.8995 152.58 47.2495 152.78 47.6095C152.85 47.7395 152.92 47.8995 153.01 48.0795C153.05 48.1695 153.09 48.2495 153.13 48.3295L152.85 48.4496C152.52 48.5896 152.21 48.7295 151.94 48.8595C151.66 48.9895 151.4 49.1196 151.15 49.2596C151.14 49.2596 151.13 49.2695 151.12 49.2795C150.86 49.4195 150.61 49.5595 150.37 49.7095C150.1 49.8795 149.83 50.0695 149.57 50.2695C149.43 50.3795 149.3 50.5095 149.16 50.6495C149.01 50.7995 148.88 50.9795 148.77 51.1895C148.7 51.3095 148.65 51.4595 148.61 51.6195C148.57 51.7895 148.58 51.9795 148.64 52.1795C148.7 52.3695 148.8 52.5295 148.92 52.6495C149.03 52.7595 149.15 52.8495 149.29 52.9295C149.51 53.0395 149.76 53.1195 150.02 53.1495C150.2 53.1795 150.38 53.1895 150.57 53.1895C150.65 53.1895 150.73 53.1895 150.81 53.1895C151.07 53.1895 151.35 53.1395 151.64 53.0695C151.93 52.9995 152.23 52.8996 152.52 52.7596C152.73 52.6496 152.94 52.5295 153.14 52.3795C153.33 52.2395 153.51 52.0795 153.67 51.9095C153.83 51.7395 153.97 51.5595 154.09 51.3795C154.21 51.1895 154.31 51.0095 154.38 50.8095C154.53 50.4095 154.6 50.0095 154.58 49.6195C154.58 49.4395 154.56 49.2695 154.53 49.1095C154.52 49.0395 154.5 48.9695 154.49 48.8995C154.75 48.8095 154.99 48.7196 155.23 48.6396L156.11 48.3495C156.33 48.2795 156.54 48.2195 156.75 48.1495C158.04 47.7695 159.37 47.3996 160.59 46.7896C160.7 46.7296 161.13 46.3895 161.2 46.6495C161.2 46.6895 161.2 46.7295 161.2 46.7695C161.17 47.0695 161.14 47.3495 161.19 47.6495C161.27 48.1595 161.49 48.6595 161.87 48.9895C162 49.1095 162.15 49.2096 162.31 49.2896C162.62 49.4496 162.95 49.5495 163.31 49.5795C163.46 49.5895 163.62 49.5995 163.79 49.5995C163.99 49.5995 164.19 49.5995 164.39 49.5695C165.13 49.4895 165.93 49.3195 166.78 49.0495C167.64 48.7795 168.58 48.4295 169.58 48.0195C170.54 47.6095 171.42 47.2195 172.18 46.8495C172.91 46.4995 173.54 46.1896 174.07 45.9196C174.6 45.6596 175.04 45.4296 175.39 45.2596C175.51 45.1996 175.61 45.1495 175.72 45.0895C175.66 45.2295 175.6 45.3595 175.53 45.5295C175.24 46.1995 174.89 46.9295 174.8 47.6795C174.78 47.8595 174.78 48.0495 174.85 48.2095C174.95 48.4695 175.2 48.6295 175.45 48.6895C176.08 48.8395 176.74 48.5696 177.3 48.2596C177.92 47.9196 178.5 47.4795 179.06 47.0295C179.21 46.9095 179.35 46.7995 179.49 46.6895L179.88 46.3695C180.23 46.0795 180.55 45.8095 180.86 45.5695C181.39 45.1495 181.92 44.7395 182.48 44.3595C182.61 44.2695 182.75 44.1195 182.91 44.0995C183.06 44.0795 183.13 44.2195 183.2 44.3395C183.36 44.5895 183.5 44.8595 183.67 45.0995C183.9 45.4195 184.16 45.7096 184.44 45.9796C185.01 46.5096 185.66 46.9196 186.37 47.1696C188.09 47.7896 189.94 47.2395 191.54 46.4695C192.35 46.0795 193.13 45.5995 193.87 45.0695C194.08 44.9195 194.26 44.7795 194.43 44.6495C194.57 44.5395 194.68 44.4495 194.81 44.3495C194.8 44.4995 194.77 44.6395 194.78 44.7995C194.83 46.2995 196.32 46.8095 197.47 46.8795C199.27 46.9895 201.09 46.4796 202.75 45.7296C203.05 45.5896 203.36 45.4496 203.65 45.2896C204.39 44.9996 205.11 44.6695 205.82 44.3195C205.85 44.3895 205.88 44.4495 205.89 44.4595C205.97 44.5995 206.07 44.7295 206.18 44.8495C206.4 45.0895 206.66 45.2795 206.94 45.4295C208.52 46.2895 210.35 46.1996 212.01 45.6996C213.66 45.1996 215.25 44.3595 216.68 43.3295C217.12 43.0095 217.54 42.6695 217.96 42.3195C218.18 42.1395 218.4 41.9595 218.62 41.7795C218.83 41.6095 219.07 41.4595 219.27 41.2695C219.48 41.0895 219.68 40.8995 219.7 40.5895C219.71 40.3295 219.59 40.0795 219.38 39.9595L219.34 39.9496ZM153.44 49.9895C153.43 50.1195 153.39 50.2595 153.33 50.3995C153.25 50.6195 153.13 50.8195 152.99 50.9895C152.85 51.1495 152.7 51.2895 152.55 51.4095C152.53 51.4095 152.52 51.4295 152.5 51.4395C152.3 51.5795 152.1 51.6895 151.9 51.7795C151.7 51.8695 151.49 51.9396 151.29 51.9796C151.29 51.9796 151.28 51.9796 151.27 51.9796C151.18 51.9996 151.1 52.0095 151.01 52.0295C150.92 52.0495 150.84 52.0595 150.76 52.0595C150.64 52.0595 150.51 52.0695 150.39 52.0595C150.27 52.0595 150.16 52.0395 150.07 52.0295C149.98 52.0095 149.89 51.9795 149.8 51.9595C149.73 51.9395 149.68 51.9095 149.64 51.8795C149.64 51.8795 149.6 51.8295 149.59 51.8195C149.59 51.7995 149.6 51.7596 149.65 51.6996C149.69 51.6296 149.74 51.5695 149.8 51.4995C149.86 51.4195 149.92 51.3596 149.99 51.2896C150.06 51.2196 150.13 51.1595 150.2 51.0995C150.35 50.9595 150.51 50.8395 150.67 50.7395C150.83 50.6295 150.99 50.5295 151.14 50.4395C151.47 50.2395 151.8 50.0695 152.12 49.9095C152.45 49.7495 152.76 49.6096 153.08 49.4796C153.17 49.4396 153.25 49.3995 153.33 49.3695L153.4 49.3395C153.4 49.3395 153.44 49.3195 153.45 49.3195C153.46 49.3995 153.48 49.4895 153.48 49.5795C153.48 49.7095 153.48 49.8595 153.47 49.9995L153.44 49.9895ZM206.75 41.8795C207.19 41.1895 208 40.4196 208.8 40.1696C209.11 40.0696 209.67 39.9895 209.58 40.4695C209.5 40.8795 209.14 41.1995 208.82 41.4395C208.07 42.0095 207.23 42.4795 206.4 42.9295C206.42 42.5495 206.57 42.1695 206.75 41.8795Z" fill="#FFF7D0"/>
<path d="M242.15 34.0011C242.12 33.9011 242.08 33.8111 242.02 33.7311C241.93 33.6111 241.81 33.5311 241.67 33.5311C241.58 33.5311 241.5 33.5611 241.42 33.6111C241.34 33.6711 241.29 33.7511 241.24 33.8411C241.19 33.9411 241.15 34.0711 241.13 34.2411C241.13 34.2811 240.98 34.3711 240.95 34.4011C240.29 34.9911 239.64 35.6211 238.93 36.1211C238.6 36.3511 238.26 36.5611 237.9 36.7411C237.72 36.8311 237.24 37.1411 237.23 36.7211C237.23 36.6911 237.23 36.6711 237.23 36.6411C237.25 36.2111 237.3 35.7711 237.38 35.3411C237.47 34.9111 237.56 34.4611 237.69 34.0411C237.87 33.3111 238.08 32.5911 238.32 31.8911C238.37 31.7311 238.43 31.5811 238.48 31.4211C238.52 31.3211 238.55 31.2211 238.56 31.1211C238.58 30.9911 238.53 30.8911 238.53 30.7711C238.47 30.5811 238.37 30.4511 238.21 30.3711C238.03 30.3111 237.86 30.3311 237.7 30.4411C237.55 30.5411 237.44 30.7011 237.39 30.8811C237 32.3311 236.64 33.7911 236.4 35.2811C236.31 35.8311 236.24 36.3911 236.31 36.9411C236.35 37.2511 236.42 37.5511 236.66 37.7511C237.28 38.2811 238.26 37.6911 238.84 37.3411C239.11 37.1711 239.38 37.0011 239.64 36.8111C239.75 36.7311 239.85 36.6511 239.96 36.5711C240.04 36.5111 240.31 36.3211 240.44 36.2311C240.48 36.2011 240.52 36.1611 240.5 36.2211C240.49 36.2711 239.9 38.5811 239.9 38.5811C239.9 38.5911 239.9 38.6111 239.89 38.6211C239.84 38.8111 239.8 39.0011 239.76 39.1911C239.72 39.3711 239.68 39.5411 239.63 39.7211C239.29 41.2011 238.91 42.8011 238.97 44.3411C238.99 44.7611 239.18 45.3711 239.66 45.3211C239.86 45.3011 240.03 45.1511 240.11 44.9611C240.23 44.6711 240.15 44.3711 240.11 44.0711C240.02 43.4811 240.1 42.8611 240.15 42.2611C240.33 40.3111 240.81 38.3711 241.48 36.5611C241.7 35.9711 241.94 35.3911 242.13 34.7811C242.2 34.5411 242.22 34.2511 242.14 34.0011H242.15Z" fill="#FFF7D0"/>
<path d="M251.049 33.2605C250.789 31.7405 249.719 30.2605 248.279 30.0005C247.499 29.8605 246.609 29.8805 245.919 30.3305C245.279 30.7505 244.809 31.4505 244.499 32.1905C244.169 32.9705 243.909 33.8805 243.989 34.7405C244.009 34.9405 244.039 35.1305 244.099 35.3205C244.299 35.9905 244.729 36.5505 245.259 36.9605C245.359 37.0505 245.469 37.1305 245.589 37.2005H245.579C244.899 37.6105 244.249 38.1305 243.749 38.7705C242.869 39.8905 242.549 41.3405 243.149 42.7105C243.719 44.0305 244.859 44.9705 246.129 45.3905C247.439 45.8205 249.089 45.5605 249.879 44.2105C250.699 42.8005 250.769 40.7805 249.989 39.3305C249.889 39.1505 249.779 38.9805 249.659 38.8205C249.159 38.1805 248.509 37.7205 247.829 37.3305L247.699 37.2505C247.919 37.1705 248.189 37.0405 248.409 36.9405C248.649 36.8305 248.899 36.7105 249.129 36.5705C249.569 36.3105 249.989 35.9905 250.349 35.6105C250.829 35.0805 251.119 34.3405 251.089 33.5805C251.089 33.4705 251.069 33.3605 251.059 33.2605H251.049ZM247.709 38.3905C248.049 38.5905 248.339 38.8105 248.579 39.0505C249.689 40.0405 249.839 41.9705 249.169 43.3005C249.019 43.6005 248.819 43.8505 248.559 44.0405C248.109 44.3705 247.589 44.4405 247.069 44.3805C245.839 44.2405 244.549 43.3905 244.009 42.1505C243.869 41.8305 243.789 41.5105 243.779 41.2105C243.779 40.9005 243.829 40.6005 243.929 40.3305C244.039 40.0405 244.179 39.7805 244.349 39.5505C244.519 39.3105 244.719 39.1005 244.929 38.9005C245.139 38.7105 245.339 38.5405 245.539 38.3905C245.539 38.3905 245.549 38.3905 245.559 38.3805C245.749 38.2505 245.939 38.1305 246.119 38.0205C246.279 37.9305 246.429 37.8405 246.579 37.7605C246.989 37.9805 247.359 38.1905 247.699 38.3905H247.709ZM249.989 33.9405C249.889 34.6805 249.369 35.1805 248.799 35.5605C248.609 35.6805 248.419 35.7905 248.229 35.9005C247.939 36.0505 246.699 36.6805 246.619 36.6305C246.049 36.2905 245.479 36.0005 245.179 35.3305C244.949 34.8105 244.949 34.2505 245.079 33.7005C245.369 32.5105 246.029 31.2405 247.239 31.0605C247.979 30.9505 248.839 31.3005 249.349 31.9005C249.779 32.3905 250.039 33.1105 249.999 33.7905C249.999 33.8405 249.999 33.8905 249.989 33.9405Z" fill="#FFF7D0"/>
<path d="M294.679 47.7712H259.359V46.2812H293.189L294.679 47.7712Z" fill="#FFF7D0"/>
<path d="M139.06 46.2812V47.7712H103.75L105.23 46.2812H139.06Z" fill="#FFF7D0"/>
</svg>
